<mxfile host="app.diagrams.net" modified="2023-09-08T07:40:54.880Z" agent="Mozilla/5.0 (Windows NT 10.0; Win64; x64) AppleWebKit/537.36 (KHTML, like Gecko) Chrome/116.0.0.0 Safari/537.36" etag="XbXe7EG8c6_81CnEpqek" version="21.7.2" type="device">
  <diagram name="第 1 页" id="hguBdn6E3rBeJ4BD7M92">
    <mxGraphModel dx="1909" dy="798" grid="0" gridSize="10" guides="1" tooltips="1" connect="1" arrows="1" fold="1" page="0" pageScale="1" pageWidth="827" pageHeight="1169" math="0" shadow="0">
      <root>
        <mxCell id="0" />
        <mxCell id="1" parent="0" />
        <mxCell id="FavVzt85AhsW8OuC3YzE-1" value="" style="rounded=1;whiteSpace=wrap;html=1;" vertex="1" parent="1">
          <mxGeometry x="150" y="139" width="476" height="98" as="geometry" />
        </mxCell>
        <mxCell id="FavVzt85AhsW8OuC3YzE-18" style="edgeStyle=orthogonalEdgeStyle;rounded=0;orthogonalLoop=1;jettySize=auto;html=1;" edge="1" parent="1" source="FavVzt85AhsW8OuC3YzE-2" target="FavVzt85AhsW8OuC3YzE-17">
          <mxGeometry relative="1" as="geometry" />
        </mxCell>
        <mxCell id="FavVzt85AhsW8OuC3YzE-2" value="client" style="text;html=1;strokeColor=none;fillColor=none;align=center;verticalAlign=middle;whiteSpace=wrap;rounded=0;" vertex="1" parent="1">
          <mxGeometry x="-195" y="173" width="60" height="30" as="geometry" />
        </mxCell>
        <mxCell id="FavVzt85AhsW8OuC3YzE-12" style="rounded=0;orthogonalLoop=1;jettySize=auto;html=1;entryX=0.5;entryY=1;entryDx=0;entryDy=0;" edge="1" parent="1" source="FavVzt85AhsW8OuC3YzE-3" target="FavVzt85AhsW8OuC3YzE-11">
          <mxGeometry relative="1" as="geometry" />
        </mxCell>
        <mxCell id="FavVzt85AhsW8OuC3YzE-3" value="&lt;font style=&quot;font-size: 11px;&quot;&gt;command 06&lt;/font&gt;" style="whiteSpace=wrap;html=1;aspect=fixed;fillColor=#ffe6cc;strokeColor=#d79b00;" vertex="1" parent="1">
          <mxGeometry x="176" y="156.5" width="61" height="61" as="geometry" />
        </mxCell>
        <mxCell id="FavVzt85AhsW8OuC3YzE-13" style="rounded=0;orthogonalLoop=1;jettySize=auto;html=1;entryX=0.5;entryY=1;entryDx=0;entryDy=0;" edge="1" parent="1" source="FavVzt85AhsW8OuC3YzE-5" target="FavVzt85AhsW8OuC3YzE-11">
          <mxGeometry relative="1" as="geometry" />
        </mxCell>
        <mxCell id="FavVzt85AhsW8OuC3YzE-5" value="&lt;font style=&quot;font-size: 11px;&quot;&gt;command 05&lt;/font&gt;" style="whiteSpace=wrap;html=1;aspect=fixed;fillColor=#ffe6cc;strokeColor=#d79b00;" vertex="1" parent="1">
          <mxGeometry x="267" y="156.5" width="61" height="61" as="geometry" />
        </mxCell>
        <mxCell id="FavVzt85AhsW8OuC3YzE-14" style="edgeStyle=orthogonalEdgeStyle;rounded=0;orthogonalLoop=1;jettySize=auto;html=1;entryX=0.5;entryY=1;entryDx=0;entryDy=0;" edge="1" parent="1" source="FavVzt85AhsW8OuC3YzE-6" target="FavVzt85AhsW8OuC3YzE-11">
          <mxGeometry relative="1" as="geometry" />
        </mxCell>
        <mxCell id="FavVzt85AhsW8OuC3YzE-6" value="&lt;font style=&quot;font-size: 11px;&quot;&gt;command 04&lt;/font&gt;" style="whiteSpace=wrap;html=1;aspect=fixed;fillColor=#ffe6cc;strokeColor=#d79b00;" vertex="1" parent="1">
          <mxGeometry x="358" y="156.5" width="61" height="61" as="geometry" />
        </mxCell>
        <mxCell id="FavVzt85AhsW8OuC3YzE-15" style="rounded=0;orthogonalLoop=1;jettySize=auto;html=1;entryX=0.5;entryY=1;entryDx=0;entryDy=0;" edge="1" parent="1" source="FavVzt85AhsW8OuC3YzE-7" target="FavVzt85AhsW8OuC3YzE-11">
          <mxGeometry relative="1" as="geometry" />
        </mxCell>
        <mxCell id="FavVzt85AhsW8OuC3YzE-7" value="&lt;font style=&quot;font-size: 11px;&quot;&gt;command 03&lt;/font&gt;" style="whiteSpace=wrap;html=1;aspect=fixed;fillColor=#ffe6cc;strokeColor=#d79b00;" vertex="1" parent="1">
          <mxGeometry x="449" y="156.5" width="61" height="61" as="geometry" />
        </mxCell>
        <mxCell id="FavVzt85AhsW8OuC3YzE-16" style="rounded=0;orthogonalLoop=1;jettySize=auto;html=1;entryX=0.5;entryY=1;entryDx=0;entryDy=0;" edge="1" parent="1" source="FavVzt85AhsW8OuC3YzE-8" target="FavVzt85AhsW8OuC3YzE-11">
          <mxGeometry relative="1" as="geometry" />
        </mxCell>
        <mxCell id="FavVzt85AhsW8OuC3YzE-28" style="edgeStyle=orthogonalEdgeStyle;rounded=0;orthogonalLoop=1;jettySize=auto;html=1;" edge="1" parent="1" target="FavVzt85AhsW8OuC3YzE-27">
          <mxGeometry relative="1" as="geometry">
            <mxPoint x="626" y="187" as="sourcePoint" />
          </mxGeometry>
        </mxCell>
        <mxCell id="FavVzt85AhsW8OuC3YzE-8" value="&lt;font style=&quot;font-size: 11px;&quot;&gt;command 02&lt;/font&gt;" style="whiteSpace=wrap;html=1;aspect=fixed;fillColor=#ffe6cc;strokeColor=#d79b00;" vertex="1" parent="1">
          <mxGeometry x="540" y="156.5" width="61" height="61" as="geometry" />
        </mxCell>
        <mxCell id="FavVzt85AhsW8OuC3YzE-9" value="Command Queue&lt;br&gt;" style="text;html=1;strokeColor=none;fillColor=none;align=center;verticalAlign=middle;whiteSpace=wrap;rounded=0;" vertex="1" parent="1">
          <mxGeometry x="293.5" y="255" width="190" height="40" as="geometry" />
        </mxCell>
        <mxCell id="FavVzt85AhsW8OuC3YzE-11" value="&lt;font style=&quot;font-size: 14px;&quot;&gt;Command Interface&lt;/font&gt;" style="text;html=1;strokeColor=none;fillColor=#d5e8d4;align=center;verticalAlign=middle;whiteSpace=wrap;rounded=1;" vertex="1" parent="1">
          <mxGeometry x="292.13" y="18" width="191.75" height="42" as="geometry" />
        </mxCell>
        <mxCell id="FavVzt85AhsW8OuC3YzE-19" style="edgeStyle=orthogonalEdgeStyle;rounded=0;orthogonalLoop=1;jettySize=auto;html=1;entryX=0;entryY=0.5;entryDx=0;entryDy=0;" edge="1" parent="1" source="FavVzt85AhsW8OuC3YzE-17" target="FavVzt85AhsW8OuC3YzE-1">
          <mxGeometry relative="1" as="geometry" />
        </mxCell>
        <mxCell id="FavVzt85AhsW8OuC3YzE-17" value="&lt;font style=&quot;font-size: 11px;&quot;&gt;command 07&lt;/font&gt;" style="whiteSpace=wrap;html=1;aspect=fixed;fillColor=#ffe6cc;strokeColor=#d79b00;" vertex="1" parent="1">
          <mxGeometry x="-36" y="157.5" width="61" height="61" as="geometry" />
        </mxCell>
        <mxCell id="FavVzt85AhsW8OuC3YzE-22" value="create command" style="text;html=1;strokeColor=none;fillColor=none;align=center;verticalAlign=middle;whiteSpace=wrap;rounded=0;" vertex="1" parent="1">
          <mxGeometry x="-119" y="152" width="68" height="34" as="geometry" />
        </mxCell>
        <mxCell id="FavVzt85AhsW8OuC3YzE-23" value="push queue" style="text;html=1;strokeColor=none;fillColor=none;align=center;verticalAlign=middle;whiteSpace=wrap;rounded=0;" vertex="1" parent="1">
          <mxGeometry x="58" y="154" width="60" height="30" as="geometry" />
        </mxCell>
        <mxCell id="FavVzt85AhsW8OuC3YzE-24" value="&lt;font style=&quot;font-size: 11px;&quot;&gt;comand&lt;br&gt;01&lt;br&gt;&lt;/font&gt;" style="whiteSpace=wrap;html=1;aspect=fixed;fillColor=#fff2cc;strokeColor=#d6b656;" vertex="1" parent="1">
          <mxGeometry x="728" y="103" width="61" height="61" as="geometry" />
        </mxCell>
        <mxCell id="FavVzt85AhsW8OuC3YzE-30" style="edgeStyle=orthogonalEdgeStyle;rounded=0;orthogonalLoop=1;jettySize=auto;html=1;" edge="1" parent="1" source="FavVzt85AhsW8OuC3YzE-27">
          <mxGeometry relative="1" as="geometry">
            <mxPoint x="933.4286063058039" y="188" as="targetPoint" />
          </mxGeometry>
        </mxCell>
        <mxCell id="FavVzt85AhsW8OuC3YzE-27" value="consumer" style="text;html=1;strokeColor=none;fillColor=none;align=center;verticalAlign=middle;whiteSpace=wrap;rounded=0;" vertex="1" parent="1">
          <mxGeometry x="734" y="173" width="60" height="30" as="geometry" />
        </mxCell>
        <mxCell id="FavVzt85AhsW8OuC3YzE-29" value="while pop" style="text;html=1;strokeColor=none;fillColor=none;align=center;verticalAlign=middle;whiteSpace=wrap;rounded=0;" vertex="1" parent="1">
          <mxGeometry x="650" y="154" width="60" height="30" as="geometry" />
        </mxCell>
        <mxCell id="FavVzt85AhsW8OuC3YzE-31" value="do&amp;nbsp; command excute" style="text;html=1;align=center;verticalAlign=middle;resizable=0;points=[];autosize=1;strokeColor=none;fillColor=none;" vertex="1" parent="1">
          <mxGeometry x="794" y="160" width="129" height="26" as="geometry" />
        </mxCell>
      </root>
    </mxGraphModel>
  </diagram>
</mxfile>
